<?xml version="1.0" encoding="UTF-8"?>
<svg width="36px" height="37px" viewBox="0 0 36 37" version="1.1" xmlns="http://www.w3.org/2000/svg" xmlns:xlink="http://www.w3.org/1999/xlink">
    <!-- Generator: Sketch 55.2 (78181) - https://sketchapp.com -->
    <title>Crypto</title>
    <desc>Created with Sketch.</desc>
    <g id="Page-1" stroke="none" stroke-width="1" fill="none" fill-rule="evenodd">
        <g id="2.-Methodology-Module---04" transform="translate(-26.000000, -158.000000)" fill="#50C1FB"  fill-rule="nonzero">
            <g id="Group-13" transform="translate(0.000000, 71.000000)">
                <g id="Group-53">
                    <g id="Group-28">
                        <g id="Group-9" transform="translate(23.000000, 11.000000)">
                            <g id="Crypto" transform="translate(3.000000, 76.000000)">
                                <path d="M11.1828,20.1278 L7.038,15.5234 C6.480525,14.89175 5.615925,14.6261 4.8,14.8358 L4.8,7.4 C4.8,6.074525 3.725475,5 2.4,5 C1.074525,5 0,6.074525 0,7.4 L0,20 C0,20.102075 0.026025,20.202425 0.0756,20.2916 L6,30.9554 L6,35.6 C6,35.93135 6.26865,36.2 6.6,36.2 L15,36.2 C15.33135,36.2 15.6,35.93135 15.6,35.6 L15.6,27.8 C15.593025,24.640025 13.91205,21.720425 11.1828,20.1278 Z M14.4,35 L7.2,35 L7.2,31.4 L14.4,31.4 L14.4,35 Z M14.4,30.2 L6.9528,30.2 L1.2,19.8446 L1.2,7.4 C1.2,6.737225 1.737225,6.2 2.4,6.2 C3.062775,6.2 3.6,6.737225 3.6,7.4 L3.6,15.5762 C2.848875,16.44875 2.866125,17.744375 3.6402,18.5966 L8.556,24.0038 L9.444,23.1962 L4.5288,17.7896 C4.136625,17.35895 4.151925,16.69625 4.5636,16.2842 C4.77375,16.070525 5.06385,15.954725 5.3634,15.965 C5.661825,15.972575 5.94405,16.102775 6.1434,16.325 L10.3512,21.0008 C10.40475,21.05465 10.465275,21.101075 10.5312,21.1388 C12.920475,22.50635 14.3961,25.04705 14.4,27.8 L14.4,30.2 Z" id="Shape"></path>
                                <path d="M33.2,5 C31.874525,5 30.8,6.074525 30.8,7.4 L30.8,14.8352 C30.6056,14.7854 30.405425,14.762 30.2048,14.7656 C29.57585,14.779625 28.98095,15.05405 28.562,15.5234 L24.4178,20.1272 C21.685925,21.717575 20.0039,24.6389 20,27.8 L20,35.6 C20,35.93135 20.26865,36.2 20.6,36.2 L29,36.2 C29.33135,36.2 29.6,35.93135 29.6,35.6 L29.6,30.9542 L34.8542,21.431 C35.34245,20.6012 35.6,19.655975 35.6,18.6932 L35.6,7.4 C35.6,6.074525 34.525475,5 33.2,5 Z M28.4,35 L21.2,35 L21.2,31.4 L28.4,31.4 L28.4,35 Z M34.4,18.6932 C34.3991,19.447475 34.196075,20.1878 33.812,20.837 L28.6454,30.2 L21.2,30.2 L21.2,27.8 C21.206975,25.034975 22.695425,22.485875 25.1,21.1208 C25.155275,21.088925 25.205075,21.048425 25.2476,21.0008 L29.4554,16.325 C29.65475,16.102775 29.9369,15.972575 30.2354,15.965 C30.837275,15.949175 31.33805,16.424225 31.353875,17.026175 C31.3613,17.307575 31.259525,17.58095 31.07,17.789 L26.156,23.1962 L27.044,24.0038 L31.9598,18.5966 C32.733875,17.744375 32.751125,16.44875 32,15.5762 L32,7.4 C32,6.737225 32.537225,6.2 33.2,6.2 C33.862775,6.2 34.4,6.737225 34.4,7.4 L34.4,18.6932 L34.4,18.6932 Z" id="Shape"></path>
                                <rect id="Rectangle" x="12" y="32" width="1" height="1"></rect>
                                <rect id="Rectangle" x="23" y="32" width="1" height="1"></rect>
                                <path d="M10.2,10.2 L11.4,10.2 C11.404275,6.556725 14.356725,3.604275 18,3.6 L18,2.4 C13.69425,2.40495 10.20495,5.89425 10.2,10.2 Z" id="Path"></path>
                                <path d="M24.6,10.2 C24.595725,13.843275 21.643275,16.795725 18,16.8 L18,18 C22.30575,17.99505 25.79505,14.50575 25.8,10.2 L24.6,10.2 Z" id="Path"></path>
                                <path d="M18.2,0 C12.566675,0 8,4.566675 8,10.2 C8.0063,15.8307 12.5693,20.3937 18.2,20.4 C23.833325,20.4 28.4,15.833325 28.4,10.2 C28.4,4.566675 23.833325,0 18.2,0 Z M18.2,19.2 C13.22945,19.2 9.2,15.17055 9.2,10.2 C9.205625,5.231775 13.231775,1.205625 18.2,1.2 C23.17055,1.2 27.2,5.22945 27.2,10.2 C27.2,15.17055 23.17055,19.2 18.2,19.2 Z" id="Shape"></path>
                                <path d="M21.125525,11.60585 C21.0062,11.138525 20.74835,10.71815 20.3858,10.4 C21.378575,9.528725 21.47705,8.0177 20.60585,7.024925 C20.2877,6.662375 19.867325,6.404525 19.4,6.2852 L19.4,5 L18.2,5 L18.2,6.2 L17,6.2 L17,5 L15.8,5 L15.8,6.2 L14.6,6.2 C14.26865,6.2 14,6.46865 14,6.8 L14,14 C14,14.33135 14.26865,14.6 14.6,14.6 L15.8,14.6 L15.8,15.8 L17,15.8 L17,14.6 L18.2,14.6 L18.2,15.8 L19.4,15.8 L19.4,14.5148 C20.6798,14.188025 21.4523,12.88565 21.125525,11.60585 Z M18.8,13.4 L15.2,13.4 L15.2,11 L18.8,11 C19.462775,11 20,11.537225 20,12.2 C20,12.862775 19.462775,13.4 18.8,13.4 Z M18.8,9.8 L15.2,9.8 L15.2,7.4 L18.8,7.4 C19.462775,7.4 20,7.937225 20,8.6 C20,9.262775 19.462775,9.8 18.8,9.8 Z" id="Shape"></path>
                                <path d="M6.6,0 L5.4,0 C5.4,1.325475 4.325475,2.4 3,2.4 L3,3.6 C4.325475,3.6 5.4,4.674525 5.4,6 L6.6,6 C6.6,4.674525 7.674525,3.6 9,3.6 L9,2.4 C7.674525,2.4 6.6,1.325475 6.6,0 Z M6,4.02 C5.73405,3.6159 5.389875,3.2691 4.9878,3 C5.389875,2.7309 5.73405,2.3841 6,1.98 C6.26595,2.3841 6.610125,2.7309 7.0122,3 C6.610125,3.2691 6.26595,3.6159 6,4.02 Z" id="Shape"></path>
                            </g>
                        </g>
                    </g>
                </g>
            </g>
        </g>
    </g>
</svg>