<?xml version="1.0" encoding="UTF-8"?>
<svg width="177px" height="36px" viewBox="0 0 177 36" version="1.1" xmlns="http://www.w3.org/2000/svg" xmlns:xlink="http://www.w3.org/1999/xlink">
    <!-- Generator: Sketch 55.2 (78181) - https://sketchapp.com -->
    <title>Group 5</title>
    <desc>Created with Sketch.</desc>
    <g id="Page-1" stroke="none" stroke-width="1" fill="none" fill-rule="evenodd">
        <g id="2.-Methodology-Module---04" transform="translate(-22.000000, -17.000000)" fill="#FFFFFF">
            <g id="Group-5" transform="translate(22.000000, 17.000000)">
                <g id="Group-3">
                    <path d="M16.0564174,29.7942897 C16.6265334,29.7942897 17.1646884,29.6556642 17.6716228,29.3779041 C18.1778167,29.1005259 18.6218162,28.7246205 19.0018935,28.2506971 C19.3817241,27.7775375 19.6824541,27.2546051 19.9044539,26.6826637 C20.1257132,26.1114861 20.2368982,25.5310159 20.2368982,24.9430352 C20.2368982,23.7346132 19.8011666,22.7217181 18.9304439,21.9046044 C18.0592277,21.0885091 16.8639584,20.679634 15.3438958,20.679634 L6.65061338,20.679634 L6.65061338,29.7942897 L16.0564174,29.7942897 Z M6.65061338,14.6031545 L14.8214128,14.6031545 C15.4865482,14.6031545 16.0639449,14.4722941 16.5553306,14.2087912 C17.045976,13.9461793 17.457891,13.6009523 17.7904587,13.1736192 C18.1229029,12.7465408 18.3759999,12.2619245 18.5506134,11.7196431 C18.7241162,11.177489 18.8118549,10.6438638 18.8118549,10.1178763 C18.8118549,9.59265253 18.7168355,9.08346811 18.5267968,8.59019571 C18.3367582,8.0971779 18.0827974,7.67009947 17.7666421,7.30857853 C17.4498699,6.94718489 17.0778136,6.65173063 16.65035,6.42183387 C16.2226396,6.1921917 15.7713594,6.07660683 15.2965095,6.07660683 L6.65061338,6.07660683 L6.65061338,14.6031545 Z M25.4624682,9.9760684 C25.4624682,10.6974554 25.3198158,11.4669604 25.0350046,12.2862381 C24.7499466,13.1056431 24.3617247,13.8597452 23.870956,14.5473988 C23.3795703,15.2349251 22.7857611,15.8167956 22.0895285,16.29161 C21.3926789,16.7669337 20.6325241,17.0212713 19.8094345,17.0534772 C20.6643618,17.119162 21.5112679,17.3718448 22.35077,17.8113982 C23.189655,18.2508244 23.9422822,18.8459336 24.6071708,19.5954531 C25.2724296,20.3452272 25.8187291,21.2086766 26.2461927,22.1858015 C26.6736563,23.1635629 26.8875115,24.2063726 26.8875115,25.3134668 C26.8875115,27.2689896 26.6024535,28.9220568 26.0323375,30.2744506 C25.4624682,31.6265898 24.6860245,32.7185358 23.7047339,33.5491429 C22.7227028,34.3807683 21.574573,34.9749865 20.2607147,35.3333251 C18.946116,35.6915363 17.5448892,35.8707692 16.0564174,35.8707692 L0,35.8707692 L0,0 L15.2965095,0 C16.6895917,0 18.0043139,0.139389234 19.2393185,0.418167703 C20.4743231,0.696818875 21.5507565,1.20460303 22.4696058,1.94113829 C23.3878382,2.67843733 24.1159085,3.69451484 24.6549273,4.98847974 C25.1930822,6.28244464 25.4624682,7.94569553 25.4624682,9.9760684 L25.4624682,9.9760684 Z" id="Fill-1"></path>
                    <polygon id="Fill-3" points="30 36 37 36 37 0 30 0"></polygon>
                    <polygon id="Fill-5" points="65 6.09837113 54.9050657 6.09837113 54.9050657 36 48.1429893 36 48.1429893 6.09837113 38 6.09837113 38 0 65 0"></polygon>
                    <g id="Group-2" transform="translate(58.000000, 0.000000)">
                        <path d="M0,36 L17.6693155,0 L18.3308072,0 L36,36 L28.8190716,36 L26.1261007,30.3365411 C23.3729942,24.1682705 20.6198877,17.9998721 17.8667812,11.8316015 C14.3049121,19.8877344 10.743043,27.9437393 7.1812966,36 L0,36 Z" id="Fill-6"></path>
                        <polygon id="Fill-7" points="12 30.9814918 24 31 17.9174938 19"></polygon>
                    </g>
                </g>
                <text id="DASHBOARD" font-family="Montserrat-Bold, Montserrat" font-size="12.01" font-weight="bold" letter-spacing="-0.230191647">
                    <tspan x="95" y="34">DASHBOARD</tspan>
                </text>
            </g>
        </g>
    </g>
</svg>