<?xml version="1.0" encoding="UTF-8"?>
<svg width="36px" height="36px" viewBox="0 0 36 36" version="1.1" xmlns="http://www.w3.org/2000/svg" xmlns:xlink="http://www.w3.org/1999/xlink">
    <!-- Generator: Sketch 55.2 (78181) - https://sketchapp.com -->
    <title>analysis</title>
    <desc>Created with Sketch.</desc>
    <g id="Page-1" stroke="none" stroke-width="1" fill="none" fill-rule="evenodd">
        <g id="2.-Methodology-Module---04" transform="translate(-23.000000, -82.000000)" fill="#4AA9DB" fill-rule="nonzero">
            <g id="Group-13" transform="translate(0.000000, 71.000000)">
                <g id="Group-53">
                    <g id="Group-28">
                        <g id="Group-9" transform="translate(23.000000, 11.000000)">
                            <g id="analysis">
                                <path d="M35.7939844,6.60346875 L29.3955469,0.205945313 C29.2637109,0.074109375 29.0849062,0 28.8984375,0 L8.015625,0 C6.85251562,0 5.90625,0.946265625 5.90625,2.109375 L5.90625,3.4498125 C2.45214844,4.80473438 0,8.17136719 0,12.1001484 C0,12.4884141 0.314859375,12.8032734 0.703125,12.8032734 L9.28764844,12.8032734 C9.67591406,12.8032734 9.99077344,12.4884141 9.99077344,12.1001484 L9.99077344,3.515625 C9.99077344,3.12735938 9.67591406,2.8125 9.28764844,2.8125 C8.60997656,2.8125 7.94932031,2.88611719 7.3125,3.02463281 L7.3125,2.109375 C7.3125,1.72167187 7.62792188,1.40625 8.015625,1.40625 L28.1953125,1.40625 L28.1953125,5.6953125 C28.1953125,6.85842188 29.1415781,7.8046875 30.3046875,7.8046875 L34.59375,7.8046875 L34.59375,33.890625 C34.59375,34.2783281 34.2783281,34.59375 33.890625,34.59375 L8.015625,34.59375 C7.62792188,34.59375 7.3125,34.2783281 7.3125,33.890625 L7.3125,27.8671641 C7.3125,27.4788984 6.99764063,27.1640391 6.609375,27.1640391 C6.22110937,27.1640391 5.90625,27.4788984 5.90625,27.8671641 L5.90625,33.890625 C5.90625,35.0537344 6.85251562,36 8.015625,36 L33.890625,36 C35.0537344,36 36,35.0537344 36,33.890625 L36,7.10064844 C36,6.91417969 35.9258906,6.73530469 35.7939844,6.60346875 Z M8.58445312,4.24989844 L8.58445312,11.3970234 L1.43732813,11.3970234 C1.77349219,7.61083594 4.79833594,4.5860625 8.58445312,4.24989844 Z M30.3046875,6.3984375 C29.9169844,6.3984375 29.6015625,6.08301562 29.6015625,5.6953125 L29.6015625,2.40046875 L33.6000937,6.3984375 L30.3046875,6.3984375 Z" id="Shape"></path>
                                <path d="M7.10641406,24.8153906 C6.97570312,24.6845391 6.79429687,24.609375 6.609375,24.609375 C6.42445312,24.609375 6.24304687,24.6845391 6.11226562,24.8153906 C5.98148437,24.9461719 5.90625,25.1275781 5.90625,25.3125 C5.90625,25.4974219 5.98141406,25.6788281 6.11226562,25.8095391 C6.24304687,25.9403906 6.42445312,26.015625 6.609375,26.015625 C6.79429687,26.015625 6.97570312,25.9403906 7.10641406,25.8095391 C7.23726562,25.6788281 7.3125,25.4974219 7.3125,25.3125 C7.3125,25.1275781 7.23726562,24.9461719 7.10641406,24.8153906 Z" id="Path"></path>
                                <path d="M12.2875781,5 C11.8993125,5 11.5844531,5.31485937 11.5844531,5.703125 L11.5844531,13.5844531 L3.703125,13.5844531 C3.31485938,13.5844531 3,13.8993125 3,14.2875781 C3,19.4087891 7.16636719,23.5752266 12.2875781,23.5752266 C17.4087891,23.5752266 21.5752266,19.4087891 21.5752266,14.2875781 C21.5752266,9.16636719 17.4087891,5 12.2875781,5 Z M12.9907031,6.43739844 C14.6367187,6.58350781 16.1386641,7.23811719 17.3385469,8.24232031 L12.9907031,12.5900937 L12.9907031,6.43739844 Z M12.2875781,22.1689766 C8.17872656,22.1689766 4.79409375,19.0085 4.43739844,14.9907031 L12.2875781,14.9907031 C12.4816406,14.9907031 12.6572813,14.9120937 12.7845469,14.7849687 C12.7846172,14.7848984 12.7846875,14.7848984 12.7848281,14.7847578 L18.3331172,9.23653906 C19.4785781,10.6053125 20.1689766,12.3673437 20.1689766,14.2875781 C20.1689766,18.6333828 16.6333828,22.1689766 12.2875781,22.1689766 Z" id="Shape"></path>
                                <path d="M30.9805625,22 C29.8174531,22 28.8711875,22.9462656 28.8711875,24.109375 C28.8711875,24.4008906 28.9306719,24.6786953 29.0380391,24.9314688 L24.987125,28.9823828 C24.7087578,28.84675 24.3962891,28.7704609 24.0663828,28.7704609 C23.7442812,28.7704609 23.4389844,28.8433047 23.1656797,28.9728906 L20.4756641,26.282875 C20.5688984,26.0449375 20.6206484,25.7862578 20.6206484,25.5155547 C20.6206484,24.3524453 19.6743828,23.4061797 18.5112734,23.4061797 C17.3481641,23.4061797 16.4018984,24.3524453 16.4018984,25.5155547 C16.4018984,25.8306953 16.4718594,26.1296641 16.5963125,26.3984687 L14.0161953,28.9785859 C13.7413437,28.8471016 13.4337969,28.7733438 13.109375,28.7733438 C11.9462656,28.7733438 11,29.7196094 11,30.8827188 C11,32.0458281 11.9462656,32.9920938 13.109375,32.9920938 C14.2724844,32.9920938 15.21875,32.0458281 15.21875,30.8827188 C15.21875,30.5566797 15.1443594,30.2477266 15.01175,29.9718906 L17.5774531,27.4061875 C17.8591953,27.5459688 18.1761641,27.6249297 18.5114141,27.6249297 C18.8900469,27.6249297 19.2453359,27.5241719 19.5528125,27.3488125 L22.1669609,29.9629609 C22.0325234,30.2403437 21.9570078,30.5514062 21.9570078,30.8798359 C21.9570078,32.0429453 22.9032734,32.9892109 24.0663828,32.9892109 C25.2294922,32.9892109 26.1757578,32.0429453 26.1757578,30.8798359 C26.1757578,30.5593516 26.1036172,30.2554609 25.9751562,29.9832109 L29.9882422,25.970125 C30.2841875,26.1286094 30.6220391,26.21875 30.9805625,26.21875 C32.1436719,26.21875 33.0899375,25.2724844 33.0899375,24.109375 C33.0899375,22.9462656 32.1436719,22 30.9805625,22 Z M13.1093047,31.5859141 C12.7216016,31.5859141 12.4061797,31.2704922 12.4061797,30.8827891 C12.4061797,30.4950859 12.7216016,30.1796641 13.1093047,30.1796641 C13.2980938,30.1796641 13.4693047,30.2548281 13.5957266,30.3763281 C13.5985391,30.3792812 13.601,30.3824453 13.6038828,30.3853281 C13.6072578,30.3887031 13.6109141,30.3915156 13.6143594,30.39475 C13.7367031,30.5213125 13.8124297,30.6932969 13.8124297,30.8827891 C13.8124297,31.2704219 13.4970078,31.5859141 13.1093047,31.5859141 Z M18.5112734,26.2186797 C18.1235703,26.2186797 17.8081484,25.9032578 17.8081484,25.5155547 C17.8081484,25.1278516 18.1235703,24.8124297 18.5112734,24.8124297 C18.8989766,24.8124297 19.2143984,25.1278516 19.2143984,25.5155547 C19.2143984,25.9032578 18.8989766,26.2186797 18.5112734,26.2186797 Z M24.0662422,31.5829609 C23.6785391,31.5829609 23.3631172,31.2675391 23.3631172,30.8798359 C23.3631172,30.4921328 23.6785391,30.1767109 24.0662422,30.1767109 C24.4539453,30.1767109 24.7693672,30.4921328 24.7693672,30.8798359 C24.7693672,31.2675391 24.4539453,31.5829609 24.0662422,31.5829609 Z M30.9804219,24.8124297 C30.5927187,24.8124297 30.2772969,24.4970078 30.2772969,24.1093047 C30.2772969,23.7216016 30.5927891,23.4061797 30.9804219,23.4061797 C31.368125,23.4061797 31.6835469,23.7216016 31.6835469,24.1093047 C31.6835469,24.4970078 31.368125,24.8124297 30.9804219,24.8124297 Z" id="Shape"></path>
                                <path d="M27.2875781,16.5234375 L23.5765547,16.5234375 C23.1882891,16.5234375 22.8734297,16.8382969 22.8734297,17.2265625 C22.8734297,17.6148281 23.1882187,17.9296875 23.5765547,17.9296875 L27.2875781,17.9296875 C27.6758437,17.9296875 27.9907031,17.6148281 27.9907031,17.2265625 C27.9907031,16.8382969 27.6758438,16.5234375 27.2875781,16.5234375 Z" id="Path"></path>
                                <path d="M32.1655078,9.7734375 L23.5765547,9.7734375 C23.1882891,9.7734375 22.8734297,10.0882969 22.8734297,10.4765625 C22.8734297,10.8648281 23.1882187,11.1796875 23.5765547,11.1796875 L32.1655078,11.1796875 C32.5537734,11.1796875 32.8686328,10.8648281 32.8686328,10.4765625 C32.8686328,10.0882969 32.5537734,9.7734375 32.1655078,9.7734375 Z" id="Path"></path>
                                <path d="M32.1655078,13.1484375 L23.5765547,13.1484375 C23.1882891,13.1484375 22.8734297,13.4632969 22.8734297,13.8515625 C22.8734297,14.2398281 23.1882187,14.5546875 23.5765547,14.5546875 L32.1655078,14.5546875 C32.5537734,14.5546875 32.8686328,14.2398281 32.8686328,13.8515625 C32.8686328,13.4632969 32.5537734,13.1484375 32.1655078,13.1484375 Z" id="Path"></path>
                            </g>
                        </g>
                    </g>
                </g>
            </g>
        </g>
    </g>
</svg>