<?xml version="1.0" encoding="UTF-8"?>
<svg width="36px" height="36px" viewBox="0 0 36 36" version="1.1" xmlns="http://www.w3.org/2000/svg" xmlns:xlink="http://www.w3.org/1999/xlink">
    <!-- Generator: Sketch 55.2 (78181) - https://sketchapp.com -->
    <title>Users</title>
    <desc>Created with Sketch.</desc>
    <g id="Page-1" stroke="none" stroke-width="1" fill="none" fill-rule="evenodd">
        <g id="2.-Methodology-Module---04" transform="translate(-26.000000, -238.000000)" fill="#50C1FB"  fill-rule="nonzero">
            <g id="Group-13" transform="translate(0.000000, 71.000000)">
                <g id="Group-53">
                    <g id="Group-28">
                        <g id="Group-9" transform="translate(23.000000, 11.000000)">
                            <g id="Users" transform="translate(3.000000, 156.000000)">
                                <path d="M35.0809171,16.834676 C34.5430881,16.3446543 33.8114544,16.0419779 33.0735158,16.0040757 C32.2355224,15.9613004 31.4504347,16.2563963 30.8657307,16.8341345 L26.8706649,20.7383347 C26.7917175,20.6032403 26.7015312,20.4757264 26.6003799,20.3574173 C26.1088776,19.7810327 25.3901277,19.4637369 24.5768053,19.4637369 L18.9841518,19.4637369 C17.9296013,19.4637369 16.9008185,19.3286425 15.926586,19.0625148 C13.386564,18.3686333 10.960029,18.8754402 8.908768,20.5290603 C8.07461228,21.2015541 7.46605965,21.9330671 7.08119123,22.4664056 L6.07845004,21.5053133 C5.94659691,21.3788823 5.76786884,21.3071388 5.58393242,21.3071388 C5.58228772,21.3071388 5.58091712,21.3071388 5.57927235,21.3071388 C5.38875698,21.3084925 5.20454646,21.3867335 5.0724193,21.5220986 L0.197693405,26.5200488 C0.0672109492,26.6537896 -0.00378684026,26.8335544 0.000155854353,27.0192753 C0.00443684395,27.205267 0.0831101071,27.3817831 0.219349125,27.5098384 L8.46414077,35.2632806 C8.60092807,35.3918774 8.77636667,35.4560405 8.95153116,35.4560405 C9.13546758,35.4560405 9.31940393,35.3853798 9.457836,35.2451416 L14.2870575,30.351964 C14.4189105,30.2182233 14.4921013,30.0354804 14.4885378,29.8486766 C14.4849741,29.6645801 14.4068491,29.4869811 14.2730772,29.3586549 L13.8525728,28.9558084 L14.815018,28.8488699 C15.3972548,28.7819996 15.9893601,28.7481584 16.5754347,28.7481584 L25.0844807,28.7481584 C26.4671561,28.7481584 27.6414982,28.449543 28.5751605,27.860434 C28.582836,27.8555609 28.5905114,27.850417 28.5981869,27.8452732 C28.9326166,27.6156939 29.2360706,27.34361 29.4997768,27.0368727 L35.2338776,20.3744733 C36.2152373,19.2344284 36.1538338,17.8117412 35.0809171,16.834676 Z M8.93316491,33.776701 L1.70893242,26.9829975 L5.60065397,22.9927051 L12.7826715,29.8760204 L8.93316491,33.776701 Z M34.1568491,19.4702345 L28.4227483,26.1329046 C28.2407307,26.3443449 28.0321232,26.5322317 27.8021342,26.691421 C27.1012022,27.1297332 26.1870026,27.3522734 25.0844807,27.3522734 L16.5751605,27.3522734 C15.9350838,27.3522734 15.2878798,27.3893635 14.654382,27.4621899 L12.5387022,27.6966422 L8.10887762,23.4510513 C8.41671755,23.0002855 8.98278112,22.2717505 9.80268246,21.6106274 C11.507178,20.236401 13.4408404,19.8316593 15.5496671,20.4080439 C16.6467066,20.7077422 17.8021342,20.8598925 18.9841518,20.8598925 L24.5768053,20.8598925 C25.5811912,20.8598925 25.8492833,21.7191902 25.8492833,22.2268094 C25.8492833,22.5977097 25.7286693,22.9507419 25.5184171,23.195482 C25.2903469,23.4605269 24.9660597,23.594809 24.5546013,23.594809 L19.6861803,23.594809 C19.2958294,23.594809 18.9794917,23.9075024 18.9794917,24.2930222 C18.9794917,24.678542 19.2958294,24.9909647 19.6861803,24.9909647 L24.5546013,24.9909647 C25.3764215,24.9909647 26.1012022,24.6742104 26.5957197,24.0991794 C27.007178,23.6210699 27.2418272,22.9924343 27.261564,22.320482 L31.8627154,17.8239241 C32.5203359,17.1744424 33.5477483,17.3374219 34.1225838,17.8610142 C34.4197329,18.1317444 34.8194039,18.7005485 34.1568491,19.4702345 L34.1568491,19.4702345 Z" id="Shape"></path>
                                <path d="M17.5520834,23.6333927 C17.4629934,23.2578899 17.0827851,23.0253326 16.7025768,23.1130492 C16.3226425,23.2010365 16.0866228,23.5765393 16.1759868,23.9520421 L16.1825658,23.9804687 C16.259046,24.3020962 16.5493421,24.5192219 16.8700658,24.5192219 C16.9235197,24.5192219 16.9777961,24.5132658 17.0320724,24.5008122 C17.4122807,24.4128249 17.6480263,24.0370513 17.5589364,23.6618193 L17.5520834,23.6333927 Z" id="Path"></path>
                                <path d="M4.7113487,14.7277228 L11.5984101,14.7277228 C11.9734101,14.7277228 12.3204495,14.6075186 12.6027961,14.404471 C12.8851426,14.6075186 13.232182,14.7277228 13.607182,14.7277228 L20.4945175,14.7277228 C20.8695175,14.7277228 21.2165571,14.6075186 21.4989035,14.404471 C21.78125,14.6075186 22.1282895,14.7277228 22.5032895,14.7277228 L29.3903509,14.7277228 C30.3338816,14.7277228 31.1014255,13.9694075 31.1014255,13.0375541 L31.1014255,9.86567913 C31.1014255,8.44109686 30.2941338,7.20358911 29.0858004,6.5930925 C29.6713267,5.8956915 30.0238487,5.00119893 30.0238487,4.02657022 C30.0238487,1.80631188 28.1949013,0 25.9468202,0 C23.6987391,0 21.8697917,1.80631188 21.8697917,4.02657022 C21.8697917,5.00119893 22.2223136,5.89596222 22.8078399,6.5930925 C22.285636,6.85732517 21.8385417,7.238784 21.4989035,7.70146196 C21.1592654,7.23851329 20.7121711,6.85705446 20.189693,6.5930925 C20.7752193,5.89596222 21.1277413,5.00119893 21.1277413,4.02657022 C21.1277413,1.80631188 19.2987939,0 17.0507127,0 C14.8026316,0 12.9736842,1.80631188 12.9736842,4.02657022 C12.9736842,5.00119893 13.3264803,5.89596222 13.9120066,6.59336321 C13.3895286,6.85732517 12.9424342,7.238784 12.6027961,7.70173267 C12.2631579,7.238784 11.8160636,6.85732517 11.2935855,6.5930925 C11.8791119,5.89596222 12.2316338,5.00119893 12.2316338,4.02684093 C12.2316338,1.80631188 10.4026865,0 8.15460526,0 C5.90679825,0 4.07785088,1.80631188 4.07785088,4.02684093 C4.07785088,5.00119893 4.43037284,5.89596222 5.01589916,6.59336321 C3.80756582,7.20385982 3,8.44163829 3,9.86594984 L3,13.0375541 C3,13.9694075 3.76781796,14.7277228 4.7113487,14.7277228 Z M25.9470943,1.39615561 C27.4155702,1.39615561 28.6104715,2.57599785 28.6104715,4.02657022 C28.6104715,5.47687194 27.4155702,6.65698482 25.9470943,6.65698482 C24.4783443,6.65698482 23.2837171,5.47714265 23.2837171,4.02657022 C23.283443,2.57599785 24.4783443,1.39615561 25.9470943,1.39615561 Z M24.1107456,7.61997212 C24.6631031,7.8963877 25.2867325,8.05314044 25.9468202,8.05314044 C26.607182,8.05314044 27.2308114,7.8963877 27.7828947,7.61997212 C28.8813048,7.80894183 29.6880483,8.74377319 29.6880483,9.86567913 L29.6880483,13.0375541 C29.6880483,13.1997215 29.5545505,13.3315672 29.3903509,13.3315672 L22.5032895,13.3315672 C22.3393641,13.3315672 22.2058662,13.1997215 22.2058662,13.0375541 L22.2058662,9.86567913 C22.2055921,8.7440439 23.0126097,7.80894183 24.1107456,7.61997212 Z M17.0509869,1.39615561 C18.5194627,1.39615561 19.7143641,2.57599785 19.7143641,4.02657022 C19.7143641,5.47687194 18.5194627,6.65698482 17.0509869,6.65698482 C15.5822368,6.65698482 14.3876097,5.47714265 14.3876097,4.02657022 C14.3876097,2.57599785 15.5822368,1.39615561 17.0509869,1.39615561 Z M15.2149123,7.61997212 C15.7669956,7.8963877 16.390625,8.05314044 17.0509869,8.05314044 C17.7113487,8.05314044 18.334704,7.8963877 18.8870614,7.61997212 C19.9851974,7.80894183 20.7922149,8.74377319 20.7922149,9.86567913 L20.7922149,13.0375541 C20.7922149,13.1997215 20.6587171,13.3315672 20.4945175,13.3315672 L13.6074561,13.3315672 C13.4432566,13.3315672 13.3097588,13.1997215 13.3097588,13.0375541 L13.3097588,9.86567913 C13.3097588,8.7440439 14.1167764,7.80894183 15.2149123,7.61997212 Z M8.15487944,1.39615561 C9.6233553,1.39615561 10.8182566,2.57599785 10.8182566,4.02657022 C10.8182566,5.47687194 9.6233553,6.65698482 8.15487944,6.65698482 C6.68640351,6.65698482 5.49150218,5.47687194 5.49150218,4.02657022 C5.49150218,2.57599785 6.68640351,1.39615561 8.15487944,1.39615561 Z M4.41365137,9.86567913 C4.41365137,8.7440439 5.22066891,7.80894183 6.31880484,7.61997212 C6.87116232,7.8963877 7.49451754,8.05314044 8.15487944,8.05314044 C8.81524126,8.05314044 9.43859649,7.8963877 9.99095396,7.61997212 C11.0893641,7.80894183 11.8961075,8.74377319 11.8961075,9.86567913 L11.8961075,13.0375541 C11.8961075,13.1997215 11.7626097,13.3315672 11.5984101,13.3315672 L4.7113487,13.3315672 C4.54714912,13.3315672 4.41365137,13.1997215 4.41365137,13.0375541 L4.41365137,9.86567913 Z" id="Shape"></path>
                            </g>
                        </g>
                    </g>
                </g>
            </g>
        </g>
    </g>
</svg>